<?xml version="1.0" encoding="UTF-8" standalone="no"?>
<!-- Created with Inkscape (http://www.inkscape.org/) -->

<svg
   width="1920"
   height="1080"
   viewBox="0 0 1920 1080"
   version="1.1"
   id="svg5"
   inkscape:version="1.2.1 (9c6d41e410, 2022-07-14)"
   xmlns:inkscape="http://www.inkscape.org/namespaces/inkscape"
   xmlns:sodipodi="http://sodipodi.sourceforge.net/DTD/sodipodi-0.dtd"
   xmlns="http://www.w3.org/2000/svg"
   xmlns:svg="http://www.w3.org/2000/svg">
  <sodipodi:namedview
     id="namedview7"
     pagecolor="#ffffff"
     bordercolor="#000000"
     borderopacity="0.25"
     inkscape:showpageshadow="2"
     inkscape:pageopacity="0.0"
     inkscape:pagecheckerboard="0"
     inkscape:deskcolor="#d1d1d1"
     inkscape:document-units="px"
     showgrid="false"
     inkscape:zoom="0.64427083"
     inkscape:cx="956.11964"
     inkscape:cy="540.14551"
     inkscape:window-width="1920"
     inkscape:window-height="1017"
     inkscape:window-x="-8"
     inkscape:window-y="-8"
     inkscape:window-maximized="1"
     inkscape:current-layer="layer1" />
  <defs
     id="defs2">
    <rect
       x="47.122879"
       y="347.29562"
       width="181.89432"
       height="258.23337"
       id="rect277" />
  </defs>
  <g
     inkscape:label="Camada 1"
     inkscape:groupmode="layer"
     id="layer1">
    <g
       id="g5470"
       transform="matrix(12.738043,0,0,13.270597,-317.12533,-152.0687)">
      <rect
         style="fill:#ff0000;stroke-width:0.264583"
         id="rect1018"
         width="117.29626"
         height="47.26223"
         x="41.247036"
         y="27.068369" />
      <g
         id="g755"
         transform="translate(17.797806,-65.714661)"
         style="fill:#ffffff">
        <g
           aria-label="amintos"
           id="text111"
           style="font-weight:600;font-size:96px;font-family:'Source Sans Pro';-inkscape-font-specification:'Source Sans Pro, Semi-Bold';white-space:pre;shape-inside:url(#rect113);shape-padding:0.942458;display:inline;fill:#ffffff"
           transform="scale(0.26458333)">
          <path
             d="m 180.53552,468.73208 q -6.24,0 -10.08,-3.744 -3.84,-3.84 -3.84,-10.08 0,-3.744 1.536,-6.624 1.632,-2.976 4.992,-5.088 3.456,-2.112 8.64,-3.552 5.28,-1.44 12.576,-2.208 -0.096,-1.824 -0.576,-3.456 -0.384,-1.728 -1.44,-2.976 -0.96,-1.344 -2.592,-2.016 -1.632,-0.768 -4.032,-0.768 -3.456,0 -6.816,1.344 -3.264,1.344 -6.432,3.264 l -4.032,-7.392 q 3.936,-2.496 8.832,-4.32 4.896,-1.824 10.56,-1.824 8.832,0 13.152,5.28 4.416,5.184 4.416,15.072 v 27.936 h -9.12 l -0.768,-5.184 h -0.384 q -3.168,2.688 -6.816,4.512 -3.552,1.824 -7.776,1.824 z m 3.552,-8.64 q 2.88,0 5.184,-1.344 2.4,-1.344 5.088,-3.84 v -10.56 q -4.8,0.576 -8.064,1.536 -3.264,0.96 -5.28,2.208 -2.016,1.152 -2.88,2.688 -0.864,1.536 -0.864,3.264 0,3.168 1.92,4.608 1.92,1.44 4.896,1.44 z"
             id="path493"
             style="fill:#ffffff" />
          <path
             d="m 218.64759,420.44408 h 9.12 l 0.768,6.432 h 0.384 q 2.976,-3.168 6.432,-5.376 3.552,-2.208 7.968,-2.208 5.184,0 8.256,2.208 3.168,2.208 4.8,6.24 3.36,-3.648 7.008,-6.048 3.648,-2.4 8.16,-2.4 7.488,0 11.04,4.896 3.552,4.8 3.552,13.824 v 29.568 h -11.136 v -28.128 q 0,-5.856 -1.824,-8.256 -1.728,-2.4 -5.376,-2.4 -4.416,0 -9.888,5.856 v 32.928 h -11.04 v -28.128 q 0,-5.856 -1.824,-8.256 -1.728,-2.4 -5.472,-2.4 -4.416,0 -9.888,5.856 v 32.928 h -11.04 z"
             id="path495"
             style="fill:#ffffff" />
          <path
             d="m 299.57563,420.44408 h 11.04 v 47.136 h -11.04 z m 5.568,-8.256 q -2.976,0 -4.896,-1.728 -1.92,-1.728 -1.92,-4.512 0,-2.784 1.92,-4.512 1.92,-1.824 4.896,-1.824 2.976,0 4.896,1.824 1.92,1.728 1.92,4.512 0,2.784 -1.92,4.512 -1.92,1.728 -4.896,1.728 z"
             id="path497"
             style="fill:#ffffff" />
          <path
             d="m 324.72754,420.44408 h 9.12 l 0.768,6.336 h 0.384 q 3.168,-3.072 6.816,-5.28 3.744,-2.208 8.64,-2.208 7.584,0 11.04,4.896 3.456,4.8 3.456,13.824 v 29.568 h -11.04 v -28.128 q 0,-5.856 -1.728,-8.256 -1.728,-2.4 -5.664,-2.4 -3.072,0 -5.472,1.536 -2.304,1.44 -5.28,4.32 v 32.928 h -11.04 z"
             id="path499"
             style="fill:#ffffff" />
          <path
             d="m 395.09549,468.73208 q -4.128,0 -7.008,-1.248 -2.784,-1.248 -4.608,-3.456 -1.728,-2.304 -2.592,-5.376 -0.768,-3.168 -0.768,-7.008 v -22.464 h -6.72 v -8.256 l 7.296,-0.48 1.344,-12.864 h 9.216 v 12.864 h 12 v 8.736 h -12 v 22.464 q 0,8.256 6.624,8.256 1.248,0 2.496,-0.288 1.344,-0.288 2.4,-0.768 l 1.92,8.16 q -1.92,0.672 -4.416,1.152 -2.4,0.576 -5.184,0.576 z"
             id="path501"
             style="fill:#ffffff" />
          <path
             d="m 477.07943,468.73208 q -4.896,0 -9.696,-1.824 -4.704,-1.92 -8.16,-4.704 l 5.184,-7.104 q 3.168,2.496 6.24,3.936 3.168,1.344 6.816,1.344 3.84,0 5.664,-1.536 1.824,-1.632 1.824,-4.128 0,-1.44 -0.864,-2.496 -0.864,-1.152 -2.304,-2.016 -1.44,-0.864 -3.264,-1.536 -1.824,-0.768 -3.648,-1.536 -2.304,-0.864 -4.704,-2.016 -2.4,-1.152 -4.32,-2.784 -1.824,-1.632 -3.072,-3.744 -1.152,-2.208 -1.152,-5.184 0,-6.24 4.608,-10.176 4.608,-3.936 12.576,-3.936 4.896,0 8.832,1.728 3.936,1.728 6.816,3.936 l -5.088,6.72 q -2.496,-1.824 -5.088,-2.88 -2.496,-1.152 -5.28,-1.152 -3.552,0 -5.28,1.536 -1.632,1.44 -1.632,3.648 0,1.44 0.768,2.496 0.864,0.96 2.208,1.728 1.344,0.768 3.072,1.44 1.824,0.672 3.744,1.344 2.4,0.864 4.8,2.016 2.4,1.056 4.32,2.688 2.016,1.632 3.168,4.032 1.248,2.304 1.248,5.568 0,3.072 -1.248,5.76 -1.152,2.592 -3.456,4.608 -2.304,1.92 -5.76,3.072 -3.456,1.152 -7.872,1.152 z"
             id="path505"
             style="display:inline;fill:#ffffff" />
        </g>
        <text
           xml:space="preserve"
           transform="matrix(0.19475916,0,0,0.17730312,25.098528,40.913698)"
           id="text275"
           style="font-style:normal;font-variant:normal;font-weight:600;font-stretch:normal;font-size:136.687px;font-family:'Source Sans Pro';-inkscape-font-specification:'Source Sans Pro, Semi-Bold';font-variant-ligatures:normal;font-variant-caps:normal;font-variant-numeric:normal;font-variant-east-asian:normal;white-space:pre;shape-inside:url(#rect277);display:inline;fill:#ffffff"><tspan
             x="47.123047"
             y="466.89604"
             id="tspan6673">f</tspan></text>
        <path
           id="path491"
           style="fill:#ffffff;stroke-width:0.264583"
           d="m 115.57743,108.59541 c -0.68687,0.19339 -1.03146,1.87585 -1.03146,1.87585 -3.51614,0.0847 -6.32215,2.90354 -6.32416,6.3531 10e-4,1.39961 0.47302,2.75975 1.34256,3.86953 0,0 -1.06159,0.97469 -0.90641,1.55391 0.52027,1.94191 3.31225,3.57521 5.23637,2.99259 0.7367,-0.22307 1.0325,-2.06551 1.0325,-2.06551 3.49057,-0.11713 6.25921,-2.92508 6.26163,-6.35052 -1.3e-4,-1.30352 -0.40873,-2.57551 -1.17047,-3.6437 0,0 0.96833,-1.02459 0.79633,-1.59267 -0.58262,-1.92428 -3.30159,-3.53747 -5.23689,-2.99258 z"
           sodipodi:nodetypes="scccsscccss" />
        <ellipse
           style="fill:#ff0000;stroke-width:0.264583"
           id="path618"
           cx="114.70494"
           cy="116.88682"
           rx="4.9871712"
           ry="5.049511" />
      </g>
    </g>
  </g>
</svg>
